<svg xmlns="http://www.w3.org/2000/svg" viewBox="0 0 627.32 570.49"><defs><style>.cls-1{fill:#f2f2f2;fill-rule:evenodd;}</style></defs><g id="Слой_2" data-name="Слой 2"><g id="РЎР_РѕР_1" data-name="РЎР»РѕР№ 1"><path fill="F2F2F2" class="cls-1" d="M5.93,54.6q0-23.45,15.66-39T61.57,0A63.74,63.74,0,0,1,83.24,3.78,49.39,49.39,0,0,1,101.34,15l-12,19.58a45.28,45.28,0,0,0-12.54-7.79,35.81,35.81,0,0,0-14-3q-14.83,0-22.4,8.83T32.79,54a34.25,34.25,0,0,0,7.79,22.4q7.79,9.5,22.18,9.5Q77.9,85.91,91,72.85l13.36,19q-17.22,17.8-42.74,17.81-25.22,0-40.43-15.51T5.93,54.6Zm136.43,53.27V1.78H232V107.87H206v-84H168.33v84Zm136.73,0V1.78h66.47V24H305.05V43.32H337.4V65.58H305.05v20h42.59v22.26Zm110.31,0V1.78h26v84h36.79v-84h26v84h13.06v42.88h-23V107.87Zm142.51,0V1.78h26V51.34l-1.19,18.1h.3a155.7,155.7,0,0,1,8.9-18.1L595.27,1.78h26.26V107.87h-26V58.46l1.18-18.1h-.29a155.56,155.56,0,0,1-8.91,18.1L558,107.87ZM0,262.08,36.05,156H63.36L99.41,262.08H72.7l-6.53-22.26H33.09l-6.38,22.26Zm39.17-43H60.09l-5.93-20.63-4.31-18.25h-.29q-2.39,11.58-4.31,18.25l-6.08,20.63Zm65.2,20.62a19.91,19.91,0,0,0,11.2-4.89q4.38-4,7.19-14.84t2.82-29.08V156H196.8V262.08h-26V178.24H150.21v12.91q0,38.13-11.42,55.12t-34.42,17V239.67Zm117.71,22.41V156h26v32.79h18.1q15.44,0,25,10.31t9.57,26.49q0,16-9.57,26.26t-25,10.24Zm26-22.26h13.2q6.24,0,9.65-3.86t3.41-10.38q0-6.54-3.49-10.54t-10-4H248.05v28.78Zm69.79,22.26V156h26v42.43h38.58V156h26V262.08h-26V220.53H343.81v41.55Zm110-53.72q0-23,15.8-38.57t39.69-15.58q23.88,0,39.69,15.58t15.8,38.57q0,23.59-15.8,39.55t-39.69,16q-23.89,0-39.69-16t-15.8-39.55Zm26.85,0q0,13.51,8.31,22.63a27.19,27.19,0,0,0,40.65,0q8.31-9.12,8.31-22.63,0-12.9-8.31-21.66a28,28,0,0,0-40.65,0q-8.31,8.76-8.31,21.66Zm103.63,53.72V156H624.8v22.25H584.29v19.29h32.35v22.26H584.29v20h42.58v22.26ZM11.57,416.28V310.2h89.62V416.28h-26v-84H37.54v84Zm111.88,0V310.2h44.06q15.44,0,25,10.24t9.57,26.26q0,16.17-9.57,26.48t-25,10.31h-18.1v32.79Zm26-55h12.76q6.53,0,10-4t3.48-10.53q0-6.54-3.41-10.39t-9.64-3.86H149.41v28.79Zm66.77,55V310.2h66.47v22.25H242.14v19.29h32.35V374H242.14v20h42.59v22.25Zm113.06-22.1H362V332.45H340.81v4.9a171.86,171.86,0,0,1-2.74,30.12,88.93,88.93,0,0,1-8.83,26.71Zm-37.54,0h11q13.5-23.44,13.5-58.91V310.2H388v84h11.87v42.88h-23V416.28H315.59v20.78H291.7V394.18Zm115.73-.3a19.89,19.89,0,0,0,11.2-4.9q4.38-4,7.2-14.83t2.82-29.08V310.2h71.22V416.28h-26V332.45H453.28v12.91q0,38.13-11.43,55.12t-34.42,17V393.88Zm108.91-31.31q0-23,15.8-38.57t39.69-15.58q23.88,0,39.69,15.58t15.8,38.57q0,23.6-15.8,39.54t-39.69,15.95q-23.9,0-39.69-15.95t-15.8-39.54Zm26.85,0q0,13.5,8.31,22.63a27.22,27.22,0,0,0,40.66,0q8.3-9.12,8.3-22.63,0-12.9-8.3-21.66a28,28,0,0,0-40.66,0q-8.31,8.76-8.31,21.66ZM1.34,570.49l28.48-55v-.3L3.56,464.41H31.45L51,505.36H61.13V464.41h26v40.95H97.18l19.59-40.95h27.89L118.4,515.15v.3l28.49,55H117.81l-20.63-43H87.09v43h-26v-43H51l-20.62,43Zm177.08,0V464.41h66.47v22.25H204.38V506h32.35v22.26H204.38v20H247v22.25Zm105,0V464.41h26v42.43h38.57V464.41h26V570.49h-26V529H309.36v41.54Zm132.28,0V464.41h26V514l-1.19,18.1h.3a156.51,156.51,0,0,1,8.9-18.1L479,464.41h26.26V570.49h-26V521.08L480.5,503h-.29a156.51,156.51,0,0,1-8.9,18.1l-29.53,49.41Zm121.44,0,20.33-34.12,4-6.38v-.3q-17.06-9.5-17.06-31.46,0-11.72,5.34-19.8A29.25,29.25,0,0,1,564,466.93q6.54-2.52,20.63-2.52h36.94V570.49h-26V534.73h-9.5l-20,35.76Zm47.18-57.27h11.28V486.66h-8.76q-8.74,0-12.46,3-3.55,3-3.56,9.94Q570.79,513.22,584.29,513.22Z"/></g></g></svg>
