<svg xmlns="http://www.w3.org/2000/svg" viewBox="0 0 1904.5 448.81"><defs><style>.cls-1{fill:#b0ce60;fill-rule:evenodd;opacity:0.7;}</style></defs><g id="Слой_2" data-name="Слой 2"><g id="РЎР_РѕР_1" data-name="РЎР»РѕР№ 1"><path class="cls-1" d="M0,170.89C25.41,107.15,64.79,56,124.4,35.71,217.46,5.24,251.93,99.19,303.63,139.82c100,73.64,179.23-25.39,275.75-50.78C724.14,51,724.14,147.44,834.44,183c131,40.63,137.87-76.18,189.57-129.5C1051.59,25.55,1093-2.38,1144.65.16,1210.14,5.24,1227.37,51,1255,86.5c27.57,38.09,62,78.72,127.53,55.86,44.81-17.77,55.15-55.86,82.73-83.79,31-27.94,93.06-60.95,144.76-40.63s41.36,78.72,82.72,104.11c74.62,47.8,146.18-84.33,211.81-15.35V448.81H0Z"/></g></g></svg>