<svg xmlns="http://www.w3.org/2000/svg" viewBox="0 0 1822.61 728.15"><defs><style>.cls-1,.cls-2{fill:#b0ce60;opacity:0.7;}.cls-2{fill-rule:evenodd;}</style></defs><g id="Слой_2" data-name="Слой 2"><g id="РЎР_РѕР_1" data-name="РЎР»РѕР№ 1"><circle class="cls-1" cx="913.52" cy="307.44" r="101.57" transform="translate(462.62 1159.34) rotate(-80.71)"/><circle class="cls-1" cx="1476.62" cy="256.65" r="59.67" transform="translate(-20.3 182.34) rotate(-7.02)"/><circle class="cls-1" cx="439.3" cy="349.79" r="59.67" transform="translate(-1.37 697.86) rotate(-76.83)"/><path class="cls-2" d="M1512.81,29.84A29.84,29.84,0,1,1,1483,0,29.83,29.83,0,0,1,1512.81,29.84Z"/><path class="cls-2" d="M388.19,58.57a29.84,29.84,0,1,1-29.84-29.84A29.84,29.84,0,0,1,388.19,58.57Z"/><circle class="cls-1" cx="1355.37" cy="563.91" r="96.49"/><path class="cls-2" d="M1104,678.18a31.75,31.75,0,1,1-31.75-31.74A31.75,31.75,0,0,1,1104,678.18Z"/><path class="cls-2" d="M1822.61,421.71A31.75,31.75,0,1,1,1790.87,390,31.75,31.75,0,0,1,1822.61,421.71Z"/><path class="cls-2" d="M138.39,207.59a31.74,31.74,0,1,1-31.74-31.74A31.74,31.74,0,0,1,138.39,207.59Z"/><path class="cls-2" d="M1213.77,181a21.59,21.59,0,1,1-21.58-21.58A21.59,21.59,0,0,1,1213.77,181Z"/><path class="cls-2" d="M1756,141.57A21.59,21.59,0,1,1,1734.36,120,21.58,21.58,0,0,1,1756,141.57Z"/><path class="cls-2" d="M597.19,173.77a14.6,14.6,0,1,1-14.6-14.6A14.6,14.6,0,0,1,597.19,173.77Z"/><path class="cls-2" d="M498.75,728.15a108,108,0,0,1,202.34,0Z"/><path class="cls-2" d="M136.49,643.9A107.72,107.72,0,0,1,96,728.15H0V539.81A108,108,0,0,1,136.49,643.9Z"/></g></g></svg>
