<svg xmlns="http://www.w3.org/2000/svg" viewBox="0 0 15.22 17.17"><defs><style>.cls-1{fill:#575756;fill-rule:evenodd;}</style></defs><g id="Слой_2" data-name="Слой 2"><g id="РЎР_РѕР_1" data-name="РЎР»РѕР№ 1"><path class="cls-1" d="M.63,8.18a.81.81,0,0,1,.08-.34l4.59,4.6-4,4a.78.78,0,0,1-.62-.77V8.18ZM7.61.9,1.22,7.29,3,9.06V6.86a.22.22,0,0,1,.23-.22h8.93a.23.23,0,0,1,.23.22V8.93L14,7.29,7.61.9Zm7,7.28v7.54a.78.78,0,0,1-.63.77l-4.05-4,4.59-4.6a.82.82,0,0,1,.09.34ZM3.43,9.72,7.61,13.9l4.31-4.31V7.09H3.43V9.72ZM2.3,16.51H12.92L9.39,13,7.88,14.48a.39.39,0,0,1-.27.11.36.36,0,0,1-.26-.11L5.83,13,2.3,16.51ZM.31,7.3A1.43,1.43,0,0,0,0,8.18v7.54a1.41,1.41,0,0,0,1.41,1.41H1.6l0,0,0,0H13.55l0,0,0,0h.19a1.41,1.41,0,0,0,1.41-1.41V8.18a1.43,1.43,0,0,0-.31-.88A.39.39,0,0,0,14.8,7L7.88.11a.37.37,0,0,0-.53,0L.42,7A.39.39,0,0,0,.31,7.3Z"/></g></g></svg>