<svg xmlns="http://www.w3.org/2000/svg" xmlns:xlink="http://www.w3.org/1999/xlink" viewBox="0 0 16.14 14.16"><defs><style>.cls-1,.cls-2,.cls-3{fill-rule:evenodd;}.cls-1{fill:url(#GradientFill_2);}.cls-2{fill:url(#GradientFill_2-2);}.cls-3{fill:url(#GradientFill_2-3);}</style><linearGradient id="GradientFill_2" x1="3.56" y1="14.16" x2="3.56" gradientUnits="userSpaceOnUse"><stop offset="0" stop-color="#4a4a4a"/><stop offset="0.18" stop-color="#262727"/><stop offset="0.43" stop-color="#262727"/><stop offset="0.89" stop-color="#222"/><stop offset="1" stop-color="#222"/></linearGradient><linearGradient id="GradientFill_2-2" x1="10.66" y1="14.16" x2="10.66" y2="0" xlink:href="#GradientFill_2"/><linearGradient id="GradientFill_2-3" x1="15.18" y1="13.75" x2="15.18" y2="0.44" xlink:href="#GradientFill_2"/></defs><g id="Слой_2" data-name="Слой 2"><g id="РЎР_РѕР_1" data-name="РЎР»РѕР№ 1"><path class="cls-1" d="M6.81,6.31.74.22C.53,0,.27-.09.11.09S0,.33,0,.69V13.48c0,.35,0,.47.11.58s.42.08.63-.13L6.81,7.86a1,1,0,0,0,.31-.78A.93.93,0,0,0,6.81,6.31Z"/><path class="cls-2" d="M13.92,6.31,7.83.22c-.2-.2-.45-.31-.62-.13S7.1.33,7.1.69V13.48c0,.35,0,.47.11.58s.42.08.62-.13l6.09-6.07a1,1,0,0,0,.29-.78A1,1,0,0,0,13.92,6.31Z"/><path class="cls-3" d="M15.18,13.75a1,1,0,0,1-1-1V1.4a1,1,0,0,1,1-1,1,1,0,0,1,1,1V12.78A1,1,0,0,1,15.18,13.75Z"/></g></g></svg>