<svg xmlns="http://www.w3.org/2000/svg" viewBox="0 0 14.69 14.69"><defs><style>.cls-1{fill:#040007;fill-rule:evenodd;}</style></defs><g id="Слой_2" data-name="Слой 2"><g id="РЎР_РѕР_1" data-name="РЎР»РѕР№ 1"><path class="cls-1" d="M11.21,2.71a.86.86,0,1,0,.87.86.86.86,0,0,0-.87-.86ZM7.37,3.81A3.63,3.63,0,1,1,3.74,7.44,3.64,3.64,0,0,1,7.37,3.81Zm0,6A2.33,2.33,0,1,0,5.05,7.44,2.34,2.34,0,0,0,7.37,9.77Zm7.32-5.34v5.84a4.42,4.42,0,0,1-4.42,4.42H4.43A4.42,4.42,0,0,1,0,10.27V4.43A4.43,4.43,0,0,1,4.43,0h5.84a4.42,4.42,0,0,1,4.42,4.43Zm-1.38,5.84a3,3,0,0,1-3,3H4.43a3,3,0,0,1-3-3V4.43a3,3,0,0,1,3-3h5.84a3,3,0,0,1,3,3Z"/></g></g></svg>