<svg xmlns="http://www.w3.org/2000/svg" viewBox="0 0 632.04 170.91"><defs><style>.cls-1{fill:#fff;fill-rule:evenodd;}</style></defs><g id="Слой_2" data-name="Слой 2"><g id="РЎР_РѕР_1" data-name="РЎР»РѕР№ 1"><path class="cls-1" d="M172.52,88.32l5,15.23,9.29-1.42v-23H120.38L119,88.32l10.84,4.26v63.75l-10.58,4,1.29,9.16H189V142.26L179.87,141,173,160.33H147.61V128.07H160.9l4,10.45,9.16-1.29V108.71l-9.29-1.29-3.87,10.45H147.61V88.32Zm61.42,27.62a33.81,33.81,0,0,1,9.81,1.55l2.71,9.68,8.64-1.55V113.23a49.5,49.5,0,0,0-21.42-5.42c-20.39,0-35,11.74-35,31.61,0,19,11.49,31.49,34.71,31.49A35.28,35.28,0,0,0,257,162.14l-4.39-6.58a35,35,0,0,1-18.58,5.93c-13.16,0-17.68-11-17.68-24.52,0-13.16,7.1-21,17.55-21Zm63.36-8.13c-19.61,0-32.26,12.26-32.26,31.49s11.48,31.48,32.26,31.48S329.43,159,329.43,139.3s-12.64-31.49-32.13-31.49Zm0,8.13c9.55,0,15.74,8.52,15.74,23s-5.93,23.74-15.74,23.74c-10.06,0-15.61-9.55-15.61-23.74s6.06-23,15.61-23Zm70.46-27.62h23.36l5.16,15.23,9.16-1.42v-23h-65l-1.29,9.16L350,92.58V156.2l-10.71,4.13,1.42,9.16h40.52l1.29-9.16-14.71-4V128.07h14.32l4.13,10.45,9-1.42V108.84l-9-1.42-4.13,10.45H367.76V88.32Zm95.62,37.3v-15a36.16,36.16,0,0,0-13.29-2.84c-5.94,0-12.65,1.93-16.65,3.35l-5.29-3.35-16.78,1.42,1.55,7.87h5.81v41.68l-8.13,2.84,1.55,7.87h32l1.55-7.87L435,158.78v-39.1a41.43,41.43,0,0,1,11.61-2.58,25.47,25.47,0,0,1,5.17.52l3,9.55,8.65-1.55Zm50.84,31c-2.58,3.09-7.48,4.9-11,4.9-5.29,0-11.74-3.35-11.74-13V109.62L484,107.81l-15.49,1.68L470,117.1h5.29v30.2c0,14.06,8.65,23.61,23.49,23.61,6.32,0,12.13-.9,17-4.39l3.87,3h17.55l1.55-7.87-8.26-2.84v-49L524,107.81l-16.65,1.68,1.42,7.61h5.42v39.49Zm56.14,2.19V109.23l-7.88-1.42-15.74,1.42,1.42,7.87h5.94v41.68l-8.26,2.84,1.55,7.87h29.68l1.54-7.87-8.25-2.84Zm-9.17-79.23a8.45,8.45,0,0,0-8.38,8.39,8.54,8.54,0,0,0,8.38,8.38,8.39,8.39,0,1,0,0-16.77Zm48.78,16-9.68-2.19L594.74,107l-9.67,3,1.29,7.1h7.35v36.26c0,9.81,6.84,17.42,19.75,17.42,8.13,0,13.55-3.48,18.58-8.64l-5.55-6.84c-3.48,3.74-7.74,6.19-11,6.19-2.32,0-5.55-2.71-5.55-7.1V117.1h15.49l1.55-7.87H610Z"/><path class="cls-1" d="M166.63,35.25c.43,0,.67-.06.67-.06l-1.5.19.83-.13ZM8.84,22l1.14.65,1.37.93C9.75,22.53,8.84,22,8.84,22ZM114.37,48.88c.63-.36,1.26-.71,1.94-1S118,47,118.9,46.6s1.8-.81,2.74-1.2a111.32,111.32,0,0,1,12-4.1,185.18,185.18,0,0,1,23.07-4.85c2.7-.39,5-.68,6.78-.88-1.47.21-3.17.47-5.07.78a186.91,186.91,0,0,0-23,5.3A112.41,112.41,0,0,0,123.52,46c-.93.4-1.83.81-2.71,1.25s-1.75.84-2.56,1.29-1.63.87-2.39,1.32-1.49.9-2.18,1.35-1.34.88-1.93,1.34-1.2.85-1.7,1.3l-.78.66c.45-1.64.89-3.3,1.37-4.89A159.65,159.65,0,0,1,121.08,23c.89-1.91,2-3.61,2.88-5.29s1.88-3.22,2.83-4.64a85.15,85.15,0,0,1,5.12-7.2c1.47-2,2.86-3.33,3.7-4.35L137,0l-1.42,1.44c-.89,1-2.36,2.25-3.93,4.16s-3.57,4.14-5.53,7A53,53,0,0,0,123,17.1c-1,1.64-2.19,3.31-3.18,5.19a161.87,161.87,0,0,0-12,26.39c-1.78,5-3.47,10.23-4.94,15.62S100,75.18,98.81,80.71c-1.5,6.85-2.72,13.73-3.78,20.49-.54-1.16-1.2-2.3-1.9-3.53s-1.47-2.62-2.34-4S89,91,88,89.59s-2-2.86-3.14-4.28-2.25-2.92-3.49-4.37-2.48-2.93-3.8-4.4A219.25,219.25,0,0,0,60.07,59.23a361,361,0,0,0-36.38-28c-3.12-2.11-5.93-3.95-8.36-5.51,3,1.79,6.85,4.18,11.29,7.06A360.72,360.72,0,0,1,63.54,60.07,216.52,216.52,0,0,1,81.41,77c1.34,1.43,2.66,2.87,3.89,4.33s2.45,2.86,3.57,4.29c.93,1.13,1.76,2.27,2.59,3.4C116.38,21.4,0,16.16,0,16.16S5.53,24,10.94,38.3c11.87,31.29,23.25,84.39,76.14,58.1.7,1.19,1.35,2.36,1.9,3.5s1.25,2.39,1.7,3.53L92,106.57c.35,1,.67,1.91,1,2.74a14.93,14.93,0,0,1,.6,1.89c-1.5,11.41-2.46,22.15-3,31.26C90,151,89.81,158,89.74,163s0,7.88,0,7.88l9.38-.39s-.2-2.7-.38-7.59-.32-11.82-.24-20.19a412.65,412.65,0,0,1,4.94-61.15c.93-5.51,1.93-11,3.16-16.36.41-1.88.89-3.72,1.34-5.56l.08-.09A17,17,0,0,1,109.33,58c.32-.33.66-.68,1-1.08s.84-.76,1.3-1.18,1-.85,1.55-1.28,1.06-.83,1.63-1.24c19.1,23.59,35.77,1.21,48-10.88a55.82,55.82,0,0,1,9.83-8S117.18,11.94,114.37,48.88Z"/></g></g></svg>