<svg xmlns="http://www.w3.org/2000/svg" viewBox="0 0 140.32 56.17"><defs><style>.cls-1{fill:#050007;}.cls-1,.cls-2{fill-rule:evenodd;}.cls-2{fill:#6da125;}</style></defs><g id="Слой_2" data-name="Слой 2"><g id="РЎР_РѕР_1" data-name="РЎР»РѕР№ 1"><path class="cls-1" d="M134.21,35.29l-2.69-.61L130,38.47l-2.69.83.36,2h2V51.31c0,2.72,1.89,4.83,5.47,4.83a6.79,6.79,0,0,0,5.15-2.4l-1.54-1.89a4.77,4.77,0,0,1-3,1.71,1.85,1.85,0,0,1-1.53-2V41.26h4.29l.43-2.18h-4.72V35.29Zm-13.52-4.43a2.34,2.34,0,0,0-2.33,2.32,2.38,2.38,0,0,0,2.33,2.33A2.34,2.34,0,0,0,123,33.18a2.31,2.31,0,0,0-2.32-2.32Zm2.54,22V39.08l-2.18-.39-4.37.39.4,2.18h1.64V52.81l-2.29.79.43,2.18h8.23l.43-2.18-2.29-.79Zm-15.56-.61a4.31,4.31,0,0,1-3,1.36c-1.46,0-3.25-.93-3.25-3.61V39.19l-2.07-.5-4.3.46.4,2.11h1.46v8.37c0,3.9,2.4,6.54,6.51,6.54A7.9,7.9,0,0,0,108.1,55l1.07.82H114l.43-2.18-2.29-.79V39.22l-1.79-.53-4.61.46.39,2.11h1.5V52.2ZM93.58,43.62V39.47a10.1,10.1,0,0,0-3.68-.78,14.86,14.86,0,0,0-4.61.93l-1.47-.93-4.65.39.43,2.18h1.61V52.81L79,53.6l.43,2.18h8.87l.43-2.18-3-.79V42a11.22,11.22,0,0,1,3.22-.72,6.44,6.44,0,0,1,1.43.15l.82,2.64,2.39-.43ZM67.09,33.29h6.47L75,37.51l2.54-.4V30.75h-18l-.36,2.54,3,1.18V52.1l-3,1.14.39,2.54H70.81l.35-2.54-4.07-1.11V44.3h4l1.14,2.9,2.5-.4V39l-2.5-.39-1.14,2.9h-4Z"/><path class="cls-1" d="M108.57,11.34c2.64,0,4.36,2.36,4.36,6.36s-1.65,6.58-4.36,6.58-4.33-2.65-4.33-6.58,1.68-6.36,4.33-6.36Zm0-2.26c-5.44,0-8.94,3.4-8.94,8.73s3.18,8.72,8.94,8.72,8.9-3.25,8.9-8.72-3.5-8.73-8.9-8.73ZM91,11.34a9.53,9.53,0,0,1,2.72.42l.75,2.69L96.87,14V10.58a13.8,13.8,0,0,0-5.93-1.5c-5.65,0-9.69,3.26-9.69,8.76,0,5.26,3.18,8.73,9.62,8.73a9.75,9.75,0,0,0,6.54-2.43l-1.22-1.83A9.62,9.62,0,0,1,91.05,24c-3.65,0-4.9-3-4.9-6.8s2-5.82,4.86-5.82ZM74,3.68,75.38,7.9,78,7.51V1.14H59.54l-.39,2.54,3,1.18V22.53l-2.93,1.11.36,2.53h19V18.63L76,18.27l-1.9,5.37h-7V14.7h3.68l1.11,2.89,2.54-.35V9.33L71.84,9l-1.07,2.89H67.09V3.68Z"/><path class="cls-2" d="M54.31,11.49l.21,0-.49.06.28,0ZM2.88,7.16l.37.21.45.31c-.52-.34-.82-.52-.82-.52Zm34.39,8.77.64-.34c.27-.14.55-.27.84-.4s.59-.27.89-.39a34.34,34.34,0,0,1,3.9-1.34,59.34,59.34,0,0,1,7.52-1.58c.88-.13,1.63-.22,2.21-.29l-1.65.26a61,61,0,0,0-7.49,1.72A36,36,0,0,0,40.26,15l-.89.4c-.29.14-.57.28-.83.43s-.53.28-.78.43-.49.29-.71.44-.44.28-.63.43a6.59,6.59,0,0,0-.55.43c-.1.07-.17.14-.26.21.15-.53.29-1.07.45-1.59a52.23,52.23,0,0,1,3.4-8.68c.29-.62.64-1.17.94-1.72s.61-1,.92-1.51c.59-.95,1.19-1.71,1.67-2.35S43.92.82,44.2.49L44.63,0l-.46.47c-.29.32-.77.73-1.28,1.35a28.56,28.56,0,0,0-1.8,2.28c-.34.45-.68.93-1,1.47s-.71,1.08-1,1.69a52.33,52.33,0,0,0-3.9,8.61C34.56,17.5,34,19.2,33.53,21S32.6,24.5,32.2,26.3c-.48,2.24-.89,4.48-1.23,6.68-.18-.38-.39-.75-.62-1.15s-.48-.85-.76-1.29-.57-.89-.9-1.34-.66-.93-1-1.4-.74-.95-1.14-1.42-.81-1-1.24-1.44a72.57,72.57,0,0,0-5.71-5.64A119.36,119.36,0,0,0,7.72,10.19C6.71,9.5,5.79,8.9,5,8.4,6,9,7.23,9.76,8.68,10.7a117.73,117.73,0,0,1,12,8.88,69.92,69.92,0,0,1,5.82,5.52c.44.47.87.94,1.27,1.42s.8.93,1.16,1.39.58.74.85,1.11C37.93,7,0,5.27,0,5.27a36.09,36.09,0,0,1,3.57,7.21C7.43,22.68,11.14,40,28.38,31.42c.23.39.44.77.62,1.14s.41.78.55,1.15.31.71.44,1,.22.63.31.89a5.47,5.47,0,0,1,.2.62c-.49,3.72-.8,7.22-1,10.19-.18,2.77-.25,5.08-.27,6.7s0,2.57,0,2.57l3.05-.13s-.06-.88-.12-2.47-.1-3.85-.08-6.58A136.05,136.05,0,0,1,33.7,26.59c.3-1.79.63-3.59,1-5.33.14-.61.29-1.21.44-1.81l0,0a6.33,6.33,0,0,1,.44-.51l.34-.35.42-.39c.15-.14.33-.27.51-.42s.34-.27.53-.4c6.22,7.69,11.65.39,15.64-3.55a17.89,17.89,0,0,1,3.21-2.6S38.19,3.89,37.27,15.93Z"/></g></g></svg>