<svg xmlns="http://www.w3.org/2000/svg" viewBox="0 0 26.26 26.26"><defs><style>.cls-1{fill:#575756;fill-rule:evenodd;}</style></defs><g id="Слой_2" data-name="Слой 2"><g id="РЎР_РѕР_1" data-name="РЎР»РѕР№ 1"><path class="cls-1" d="M20.62,17.47a.72.72,0,0,1-.22.63l-2.11,2.1a1.42,1.42,0,0,1-.38.27,1.56,1.56,0,0,1-.45.14h-.3A7.23,7.23,0,0,1,14.53,20a13.57,13.57,0,0,1-2.21-1.21,16.36,16.36,0,0,1-2.64-2.22,16.63,16.63,0,0,1-1.84-2.1,15.83,15.83,0,0,1-1.18-1.85A10,10,0,0,1,6,11.09a9,9,0,0,1-.3-1.19,4.23,4.23,0,0,1-.06-.79c0-.19,0-.3,0-.32a1.59,1.59,0,0,1,.15-.45A1,1,0,0,1,6.06,8L8.17,5.85a.74.74,0,0,1,.51-.22A.56.56,0,0,1,9,5.75,1.06,1.06,0,0,1,9.31,6L11,9.27a.75.75,0,0,1,.08.55.91.91,0,0,1-.27.51l-.78.78a.23.23,0,0,0,0,.1.3.3,0,0,0,0,.12,2.7,2.7,0,0,0,.28.77,7.4,7.4,0,0,0,.59.93A10.38,10.38,0,0,0,12,14.29a9.77,9.77,0,0,0,1.27,1.13,7.66,7.66,0,0,0,.93.6,2.56,2.56,0,0,0,.57.23l.2,0,.1,0,.1-.06.91-.92a1,1,0,0,1,.67-.26.81.81,0,0,1,.42.1h0l3.07,1.81A.78.78,0,0,1,20.62,17.47Z"/><path class="cls-1" d="M13.13,0a13.13,13.13,0,0,1,0,26.26A13.12,13.12,0,0,1,3.85,3.85,13,13,0,0,1,13.13,0Zm8.44,4.69a12,12,0,1,0,3.49,8.44A11.91,11.91,0,0,0,21.57,4.69Z"/></g></g></svg>