<svg xmlns="http://www.w3.org/2000/svg" xmlns:xlink="http://www.w3.org/1999/xlink" viewBox="0 0 16.17 14.16"><defs><style>.cls-1,.cls-2,.cls-3{fill-rule:evenodd;}.cls-1{fill:url(#GradientFill_2);}.cls-2{fill:url(#GradientFill_2-2);}.cls-3{fill:url(#GradientFill_2-3);}</style><linearGradient id="GradientFill_2" x1="12.6" y1="14.16" x2="12.6" gradientUnits="userSpaceOnUse"><stop offset="0" stop-color="#4a4a4a"/><stop offset="0.18" stop-color="#262727"/><stop offset="0.43" stop-color="#262727"/><stop offset="0.89" stop-color="#222"/><stop offset="1" stop-color="#222"/></linearGradient><linearGradient id="GradientFill_2-2" x1="5.5" y1="14.16" x2="5.5" y2="0" xlink:href="#GradientFill_2"/><linearGradient id="GradientFill_2-3" x1="0.97" y1="13.76" x2="0.97" y2="0.44" xlink:href="#GradientFill_2"/></defs><g id="Слой_2" data-name="Слой 2"><g id="РЎР_РѕР_1" data-name="РЎР»РѕР№ 1"><path class="cls-1" d="M9.34,6.3,15.42.22c.21-.2.48-.31.64-.13s.11.24.11.59V13.49c0,.34,0,.46-.11.57s-.43.08-.64-.11L9.34,7.86a1.14,1.14,0,0,1,0-1.56Z"/><path class="cls-2" d="M2.24,6.3,8.33.22c.2-.2.45-.31.62-.13s.11.24.11.59V13.49c0,.34,0,.46-.11.57s-.42.08-.62-.11L2.24,7.86a1,1,0,0,1-.3-.78A1,1,0,0,1,2.24,6.3Z"/><path class="cls-3" d="M1,13.76a1,1,0,0,1-1-1V1.41a1,1,0,0,1,1-1,1,1,0,0,1,1,1V12.79A1,1,0,0,1,1,13.76Z"/></g></g></svg>