<svg xmlns="http://www.w3.org/2000/svg" viewBox="0 0 17.25 17.25"><defs><style>.cls-1{fill:#575756;fill-rule:evenodd;}</style></defs><g id="Слой_2" data-name="Слой 2"><g id="РЎР_РѕР_1" data-name="РЎР»РѕР№ 1"><path class="cls-1" d="M16.24,9.85V1.55A.51.51,0,0,0,15.73,1H13.17V.51a.5.5,0,0,0-.5-.51.51.51,0,0,0-.51.51V1h-2V.51a.51.51,0,1,0-1,0V1h-2V.51A.51.51,0,0,0,6.6,0a.5.5,0,0,0-.5.51V1h-2V.51A.51.51,0,0,0,3.57,0a.5.5,0,0,0-.5.51V1H.51A.51.51,0,0,0,0,1.55V14.72a.51.51,0,0,0,.51.51H8.92a4.55,4.55,0,0,0,8.33-2.53,4.52,4.52,0,0,0-1-2.85ZM3.07,2.05v.51a.5.5,0,0,0,.5.51.51.51,0,0,0,.51-.51V2.05h2v.51a.5.5,0,0,0,.5.51.51.51,0,0,0,.51-.51V2.05h2v.51a.51.51,0,1,0,1,0V2.05h2v.51a.51.51,0,0,0,.51.51.5.5,0,0,0,.5-.51V2.05h2.06v2H1v-2ZM1,14.22V5.09H15.23V8.92a4.6,4.6,0,0,0-2.53-.77,4.53,4.53,0,0,0-3.81,2.08.46.46,0,0,0-.23-.06h-1a.51.51,0,0,0-.51.51.5.5,0,0,0,.51.5h.76a4.88,4.88,0,0,0-.23,1H7.65a.5.5,0,0,0-.51.5.51.51,0,0,0,.51.51h.53a4.93,4.93,0,0,0,.23,1Zm11.69,2a3.54,3.54,0,1,1,3.54-3.54A3.55,3.55,0,0,1,12.7,16.24Z"/><path class="cls-1" d="M14.72,12.2H13.21V10.68a.51.51,0,0,0-.51-.51.5.5,0,0,0-.5.51v2a.5.5,0,0,0,.5.51h2a.51.51,0,0,0,.51-.51A.5.5,0,0,0,14.72,12.2Z"/><path class="cls-1" d="M4.58,6.13h-1a.5.5,0,0,0-.5.51.5.5,0,0,0,.5.5h1a.5.5,0,0,0,.51-.5A.51.51,0,0,0,4.58,6.13Z"/><path class="cls-1" d="M4.58,8.15h-1a.5.5,0,0,0-.5.51.5.5,0,0,0,.5.5h1a.5.5,0,0,0,.51-.5A.51.51,0,0,0,4.58,8.15Z"/><path class="cls-1" d="M4.58,10.17h-1a.5.5,0,0,0-.5.51.5.5,0,0,0,.5.5h1a.5.5,0,0,0,.51-.5A.51.51,0,0,0,4.58,10.17Z"/><path class="cls-1" d="M7.65,7.14h1a.5.5,0,0,0,.5-.5.5.5,0,0,0-.5-.51h-1a.51.51,0,0,0-.51.51A.5.5,0,0,0,7.65,7.14Z"/><path class="cls-1" d="M7.65,9.16h1a.5.5,0,0,0,.5-.5.5.5,0,0,0-.5-.51h-1a.51.51,0,0,0-.51.51A.5.5,0,0,0,7.65,9.16Z"/><path class="cls-1" d="M4.58,12.2h-1a.5.5,0,0,0-.5.5.5.5,0,0,0,.5.51h1a.51.51,0,0,0,.51-.51A.5.5,0,0,0,4.58,12.2Z"/><path class="cls-1" d="M11.69,7.14h1a.5.5,0,0,0,.51-.5.51.51,0,0,0-.51-.51h-1a.51.51,0,0,0-.51.51A.5.5,0,0,0,11.69,7.14Z"/></g></g></svg>