<svg xmlns="http://www.w3.org/2000/svg" viewBox="0 0 1904.5 222.81"><defs><style>.cls-1{fill:#b0ce60;fill-rule:evenodd;opacity:0.7;}</style></defs><g id="Слой_2" data-name="Слой 2"><g id="РЎР_РѕР_1" data-name="РЎР»РѕР№ 1"><path class="cls-1" d="M0,179.84C25.25,112,65.47,56.92,127.84,35.71,220.91,5.24,255.37,99.19,307.08,139.82,407,213.46,486.31,114.43,582.82,89,727.59,51,727.59,147.44,837.89,183c131,40.63,137.87-76.18,189.57-129.5C1055,25.55,1096.4-2.38,1148.1.16c65.49,5.08,82.72,50.79,110.3,86.34,27.57,38.09,62,78.72,127.53,55.86,44.81-17.77,55.15-55.86,82.72-83.79,31-27.94,93.06-60.95,144.77-40.63s41.36,78.72,82.72,104.11c73.31,47,143.67-79.76,208.36-18.79V222.81H0Z"/></g></g></svg>