<svg xmlns="http://www.w3.org/2000/svg" viewBox="0 0 93.54 16.5"><defs><style>.cls-1{fill:#f7a400;fill-rule:evenodd;}</style></defs><g id="Слой_2" data-name="Слой 2"><g id="РЎР_РѕР_1" data-name="РЎР»РѕР№ 1"><path class="cls-1" d="M9.28.44l2,5.05,5.4.29a.68.68,0,0,1,.65.72A.67.67,0,0,1,17,7l-4.18,3.4,1.39,5.23a.68.68,0,0,1-.49.84.69.69,0,0,1-.56-.1L8.64,13.45,4.1,16.39a.68.68,0,0,1-.95-.2.67.67,0,0,1-.09-.55l1.39-5.23L.25,7a.7.7,0,0,1-.1-1,.71.71,0,0,1,.5-.25l5.4-.29,2-5a.69.69,0,0,1,1.28,0Zm.83,6L8.64,2.59,7.18,6.37a.68.68,0,0,1-.61.46l-4.08.22L5.63,9.61a.68.68,0,0,1,.26.72l-1,3.95,3.42-2.21a.68.68,0,0,1,.75,0l3.43,2.22-1-3.95a.68.68,0,0,1,.23-.7l3.17-2.58-4.08-.22A.67.67,0,0,1,10.11,6.4Z"/><path class="cls-1" d="M28.34.44l1.95,5.05,5.41.29a.68.68,0,0,1,.64.72.67.67,0,0,1-.27.51l-4.18,3.4,1.39,5.23a.68.68,0,0,1-.48.84.71.71,0,0,1-.57-.1L27.7,13.45l-4.54,2.94a.68.68,0,0,1-.95-.2.71.71,0,0,1-.09-.55l1.4-5.23L19.32,7a.69.69,0,0,1,.39-1.22l5.41-.29,1.95-5A.68.68,0,0,1,28,.05a.65.65,0,0,1,.39.39Zm.83,6L27.7,2.59,26.24,6.37a.67.67,0,0,1-.61.46l-4.07.22L24.7,9.61a.66.66,0,0,1,.25.72L23.9,14.28l3.43-2.21a.68.68,0,0,1,.75,0l3.42,2.22-1.05-3.95a.7.7,0,0,1,.23-.7l3.17-2.58-4.07-.22A.68.68,0,0,1,29.17,6.4Z"/><path class="cls-1" d="M47.41.44l2,5.05,5.4.29a.68.68,0,0,1,.65.72.7.7,0,0,1-.27.51L51,10.41l1.39,5.23a.68.68,0,0,1-1.05.74l-4.53-2.93-4.55,2.94a.68.68,0,0,1-1-.75l1.39-5.23L38.38,7a.69.69,0,0,1-.1-1,.71.71,0,0,1,.5-.25l5.4-.29,2-5A.68.68,0,0,1,47,.05a.67.67,0,0,1,.4.39Zm.83,6L46.77,2.59,45.31,6.37a.68.68,0,0,1-.62.46l-4.07.22,3.14,2.56a.68.68,0,0,1,.26.72L43,14.28l3.42-2.21a.68.68,0,0,1,.75,0l3.43,2.22-1-3.95a.66.66,0,0,1,.23-.7l3.17-2.58-4.08-.22A.67.67,0,0,1,48.24,6.4Z"/><path class="cls-1" d="M66.47.44l2,5.05,5.4.29a.68.68,0,0,1,.65.72A.67.67,0,0,1,74.2,7L70,10.41l1.39,5.23a.68.68,0,0,1-.49.84.69.69,0,0,1-.56-.1l-4.53-2.93-4.54,2.94a.68.68,0,0,1-.95-.2.67.67,0,0,1-.09-.55l1.39-5.23L57.44,7a.7.7,0,0,1-.1-1,.71.71,0,0,1,.5-.25l5.4-.29,1.95-5a.69.69,0,0,1,.89-.39.65.65,0,0,1,.39.39Zm.83,6L65.83,2.59,64.37,6.37a.68.68,0,0,1-.61.46l-4.08.22,3.14,2.56a.67.67,0,0,1,.26.72l-1,3.95,3.42-2.21a.68.68,0,0,1,.75,0l3.43,2.22-1-3.95a.7.7,0,0,1,.23-.7L72,7.05,67.9,6.83A.67.67,0,0,1,67.3,6.4Z"/><path class="cls-1" d="M85.53.44l2,5.05,5.41.29a.68.68,0,0,1,.64.72.67.67,0,0,1-.27.51l-4.18,3.4,1.39,5.23a.68.68,0,0,1-.48.84.71.71,0,0,1-.57-.1l-4.53-2.93-4.54,2.94a.68.68,0,0,1-.95-.2.67.67,0,0,1-.08-.55l1.39-5.23L76.51,7a.69.69,0,0,1,.39-1.22l5.41-.29,2-5a.68.68,0,0,1,.88-.39.63.63,0,0,1,.39.39Zm.84,6L84.89,2.59,83.43,6.37a.67.67,0,0,1-.61.46l-4.07.22,3.14,2.56a.68.68,0,0,1,.26.72L81.1,14.28l3.42-2.21a.68.68,0,0,1,.75,0l3.42,2.22-1-3.95a.68.68,0,0,1,.24-.7L91,7.05,87,6.83A.67.67,0,0,1,86.37,6.4Z"/></g></g></svg>