<svg xmlns="http://www.w3.org/2000/svg" viewBox="0 0 79.66 79.66"><defs><style>.cls-1,.cls-2{fill:#fff;}.cls-2{fill-rule:evenodd;}</style></defs><g id="Слой_2" data-name="Слой 2"><g id="РЎР_РѕР_1" data-name="РЎР»РѕР№ 1"><rect class="cls-1" x="13.99" y="50.41" width="33" height="4.67" transform="translate(-28.36 37) rotate(-45)"/><path class="cls-2" d="M40,55.23a7,7,0,1,0,7,7,7,7,0,0,0-7-7Zm0,9.34a2.34,2.34,0,1,1,2.34-2.34A2.34,2.34,0,0,1,40,64.57Z"/><path class="cls-2" d="M28,43.25a7,7,0,1,0-7,7,7,7,0,0,0,7-7Zm-9.33,0A2.34,2.34,0,1,1,21,45.59,2.33,2.33,0,0,1,18.67,43.25Z"/><path class="cls-2" d="M65.66,21V16.49A16.49,16.49,0,0,0,39.83,2.9,16.49,16.49,0,0,0,14,16.49V21H0V79.66H79.66V21ZM75,71.69,70.32,67V25.67H75v46Zm-9.33-46V67L61,71.69v-46ZM68,71.29l3.7,3.7h-7.4l3.7-3.7Zm-7-54.8V21H47V16.49a16.41,16.41,0,0,0-3.63-10.3A11.83,11.83,0,0,1,61,16.49ZM39.83,9.25a11.73,11.73,0,0,1,2.49,7.24V21h-5V16.49a11.73,11.73,0,0,1,2.49-7.24ZM18.67,16.49A11.82,11.82,0,0,1,36.29,6.19a16.46,16.46,0,0,0-3.62,10.3V21h-14V16.49Zm-14,9.18H14v4.82h4.67V25.67H42.32v4.82H47V25.67h9.33V75H4.67Z"/></g></g></svg>